<svg width="30" height="27" viewBox="0 0 30 27" fill="none" xmlns="http://www.w3.org/2000/svg">
<path d="M29.8978 9.15617C29.7712 8.72176 29.5393 8.35197 29.2487 8.06826C28.8105 7.64052 28.2632 7.4007 27.7129 7.26101C27.1603 7.12121 26.5932 7.07855 26.0702 7.07797C25.6172 7.07797 25.1978 7.1109 24.8548 7.14939H24.8557C24.5784 7.1805 24.3243 7.23295 24.1064 7.27261C23.8898 7.3141 23.7067 7.34035 23.6027 7.33918L23.57 7.33672C23.5682 7.32693 23.5663 7.32142 23.5645 7.30859C23.4104 6.21886 23.3284 5.14859 23.0337 4.05699C22.7405 2.96603 22.2148 1.86224 21.2181 0.785935C20.7452 0.268552 20.165 -0.00238567 19.6082 0.000602606C19.1142 1.66687e-05 18.6718 0.205036 18.3594 0.514997C18.0467 0.824314 17.846 1.24841 17.8447 1.7164C17.8444 1.93238 17.8963 2.15386 17.9903 2.36258L17.9863 2.36439C18.2788 3.15154 18.443 3.87517 18.4415 4.4573C18.4415 4.80506 18.386 5.0992 18.2801 5.34447C18.1178 5.70933 17.8585 5.99551 17.3471 6.23468C16.8377 6.47017 16.0689 6.62638 14.9999 6.62515C13.5709 6.62761 12.6913 6.34631 12.2194 5.97834C11.9802 5.79347 11.827 5.59027 11.7196 5.34441C11.6137 5.09914 11.5583 4.805 11.5583 4.45724C11.5567 3.87511 11.7206 3.15148 12.0134 2.36433L12.0094 2.36316C12.1034 2.15328 12.1553 1.93238 12.155 1.71699C12.1538 1.24842 11.953 0.824314 11.6404 0.514997C11.3279 0.205036 10.8855 1.66553e-05 10.3917 1.66553e-05C9.8349 -0.00244428 9.25459 0.267849 8.78174 0.785876C7.78506 1.8616 7.25936 2.96597 6.96621 4.05693C6.67119 5.14853 6.58939 6.21881 6.43535 7.30853C6.43348 7.32195 6.43166 7.32681 6.42955 7.33666L6.39721 7.33912C6.2935 7.34029 6.11045 7.31404 5.89354 7.27256C5.67568 7.2323 5.42156 7.18045 5.14395 7.14933H5.14453C4.80258 7.11148 4.38275 7.07855 3.92971 7.07791C3.23291 7.07972 2.45648 7.15115 1.74193 7.43732C1.38527 7.58134 1.04238 7.78326 0.751348 8.06826C0.460605 8.35197 0.22875 8.72176 0.102129 9.15617C0.0329883 9.39166 0 9.63822 0 9.8883C0.00580078 10.9592 0.576328 12.0904 1.62211 13.0416C2.60906 13.9349 4.03869 14.6598 5.88352 14.9893C5.8902 15.0179 5.89658 15.0418 5.90367 15.0747C6.01348 15.5824 6.14402 16.5537 6.38689 17.6875C6.75516 19.3934 7.37689 21.5059 8.68143 23.2442C9.33428 24.1113 10.1644 24.8837 11.2127 25.4335C12.2603 25.9845 13.52 26.3067 15 26.3061C17.2253 26.311 18.9505 25.569 20.2093 24.4506C22.1007 22.7708 22.9733 20.3411 23.4679 18.3239C23.7131 17.3141 23.8608 16.3989 23.9749 15.7326C24.0284 15.419 24.075 15.1614 24.1155 14.99C25.961 14.6605 27.3909 13.9357 28.3779 13.0418C29.4237 12.0905 29.9939 10.9593 30 9.88842C30 9.63822 29.9671 9.39166 29.8978 9.15617ZM9.70014 1.63402C10 1.31433 10.2288 1.25269 10.3918 1.25023C10.5382 1.25023 10.6651 1.30883 10.7619 1.40345C10.8586 1.49861 10.9068 1.62002 10.9056 1.71705L10.869 1.86775L10.8537 1.89834L10.8421 1.93004C10.5193 2.80443 10.3103 3.65129 10.3088 4.45736C10.3088 4.93754 10.3857 5.40611 10.5724 5.83935C10.7204 6.18775 10.9476 6.50076 11.2356 6.7717C10.7688 6.76191 10.2627 6.75459 9.77121 6.74849C8.96584 6.73865 8.21285 6.73385 7.77106 6.73074C7.87758 5.88992 7.97338 5.1132 8.17225 4.38406C8.4307 3.44134 8.84227 2.56636 9.70014 1.63402ZM18.6903 24.0423C17.7391 24.6628 16.555 25.0546 15.0001 25.0564C13.0442 25.0515 11.6722 24.4395 10.6182 23.5145C9.86619 22.8543 9.2874 22.0093 8.83371 21.1007C8.8865 20.8207 9.01037 20.5656 9.21082 20.3161C9.61717 19.8114 10.3698 19.3605 11.3665 19.0555C12.3611 18.7474 13.5885 18.5796 14.9159 18.5796C16.6857 18.5778 18.2788 18.881 19.3771 19.4057C19.9269 19.6668 20.3488 19.9805 20.6213 20.3161C20.884 20.6431 21.0142 20.9799 21.0252 21.3704C20.9886 21.4381 20.9578 21.5089 20.9197 21.5754C20.3618 22.556 19.64 23.4212 18.6903 24.0423ZM27.5392 12.1154C26.6944 12.8806 25.3883 13.5524 23.5844 13.8166L23.4453 13.8368L23.3285 13.9149C23.1774 14.0197 23.1185 14.1217 23.0712 14.2022C22.9874 14.3609 22.9532 14.4909 22.9129 14.6458C22.8424 14.9308 22.7832 15.2877 22.7094 15.7197C22.5203 16.8443 22.2375 18.4672 21.6389 20.0342C21.5663 19.9128 21.487 19.795 21.3967 19.6851C20.799 18.956 19.8746 18.4465 18.7604 18.0999C17.6445 17.7558 16.3274 17.5801 14.9158 17.5801C13.0338 17.5812 11.3204 17.8895 10.0253 18.5027C9.37852 18.8114 8.83213 19.1988 8.43521 19.6851C8.38705 19.7437 8.3492 19.8096 8.3059 19.8713C8.07738 19.2519 7.89094 18.6271 7.74668 18.0286C7.65516 17.6521 7.58045 17.2933 7.51301 16.948C7.91941 17.0603 8.33912 17.1201 8.76475 17.1201C9.98813 17.1195 11.2475 16.6906 12.3442 15.9809C13.4404 15.27 14.377 14.2743 14.9375 13.1125C15.2819 12.3974 15.425 11.6713 15.4247 10.9848C15.4241 9.88959 15.0659 8.89683 14.5884 8.15615C14.5164 8.04447 14.4371 7.95054 14.3599 7.85105C14.5673 7.86265 14.7751 7.87484 15 7.87484C16.577 7.87238 17.7308 7.58498 18.5405 6.97056C18.9422 6.66429 19.2418 6.27254 19.4276 5.83935C19.6143 5.40611 19.6912 4.93748 19.6912 4.45736C19.6897 3.65129 19.4808 2.80443 19.158 1.93004L19.146 1.89834L19.1311 1.8684L19.0945 1.71646C19.0932 1.62002 19.1415 1.49802 19.2379 1.40351C19.3349 1.30888 19.4618 1.25029 19.6082 1.25029C19.7708 1.25275 19.9999 1.31439 20.2999 1.63408C21.1577 2.56642 21.5693 3.4414 21.8277 4.38412C22.0846 5.3256 22.1688 6.34396 22.3271 7.48191C22.3499 7.6448 22.393 7.80289 22.4684 7.95295C22.5779 8.17806 22.7801 8.37148 22.9952 8.46728C23.2106 8.56613 23.4174 8.58752 23.6026 8.58875C23.8641 8.58752 24.1015 8.54357 24.3339 8.50144C24.5654 8.45814 24.7897 8.41426 24.9935 8.39164L24.9945 8.39105C25.3022 8.35683 25.6778 8.32754 26.0701 8.32754C26.673 8.32631 27.3139 8.40136 27.7902 8.59601C28.0294 8.69246 28.225 8.81445 28.3732 8.96029C28.5214 9.1073 28.6288 9.27511 28.6987 9.50885C28.7317 9.62052 28.7503 9.74744 28.7503 9.88836C28.7562 10.4894 28.3876 11.3515 27.5392 12.1154Z" fill="#607089"/>
<path d="M12.1568 20.9951C11.754 20.9951 11.4276 21.5083 11.4276 22.1404C11.4276 22.7731 11.7541 23.2863 12.1568 23.2863C12.5591 23.2863 12.8856 22.7731 12.8856 22.1404C12.8855 21.5083 12.5591 20.9951 12.1568 20.9951Z" fill="#607089"/>
<path d="M16.8428 20.9951C16.4401 20.9951 16.1136 21.5083 16.1136 22.1404C16.1136 22.7731 16.4401 23.2863 16.8428 23.2863C17.2452 23.2863 17.5716 22.7731 17.5716 22.1404C17.5716 21.5083 17.2452 20.9951 16.8428 20.9951Z" fill="#607089"/>
<path d="M18.5609 11.6237C18.0146 11.6237 17.5715 12.0666 17.5715 12.6134C17.5715 13.1595 18.0145 13.6024 18.5609 13.6024C19.1073 13.6024 19.5503 13.1595 19.5503 12.6134C19.5503 12.0667 19.1073 11.6237 18.5609 11.6237Z" fill="#607089"/>
</svg>
