<svg width="40" height="40" viewBox="0 0 40 40" fill="none" xmlns="http://www.w3.org/2000/svg">
<g clip-path="url(#clip0_34_374)">
<path fill-rule="evenodd" clip-rule="evenodd" d="M28.8421 18L28.2969 22.7726L22.8758 22.8105L22.3685 18C21.0843 18 20.6085 17.3368 20.6085 16.0337H22.3685C22.3832 15.0463 22.5032 13.7916 23.4779 13.7831C23.4779 13.7831 23.4779 16.0337 25.6085 16.0337C27.739 16.0337 27.7369 13.7831 27.7369 13.7831C28.7116 13.7831 28.8337 15.0463 28.8464 16.0337H30.6064C30.6064 17.3368 30.1327 18 28.8421 18ZM21.3432 18.9474C21.4379 19.6947 21.8927 23.7095 21.8927 23.7095L25.5179 24L25.8948 30.9474L23.8421 30.8695L23.4211 26.7831H21.8043L21.52 31.0295L19.4632 31.0147L19.1748 26.8463L13.1137 26.6779L12.7369 31.0589L11.0211 31.0295L10.2021 24.9537L11.6632 22.4021V18.3284C11.6632 16.7726 12.3327 16 14.0632 16C15.0674 16 16.5074 16.0295 19.3095 16.0295C19.3095 17.5895 20.3516 18.9474 21.3432 18.9474ZM16.6485 31.0505L14.9011 31.1074L13.9516 27.5789L16.2485 27.6779L16.6485 31.0505Z" fill="#607089"/>
<path d="M19.8304 7.00741L16.5982 3.63542L18.005 2.73818L18.0871 2.03891L17.4346 2L15.7423 3.21723L13.6305 3.21906L12.3378 2.42973L11.8748 2.52426L11.8816 3.03743L12.7148 3.96033L12.605 4.44512L2.79841 5.49976L-7.35951 5.21609L-8.45414 5.67496L-9.26043 6.69952L-9.67528 9.09602L-9.74856 10.8187L-10 12.4273L-9.93088 14.0295L-9.64809 14.0873L-9.23703 13.6348L-8.90285 12.1315L-9.17371 10.046L-9.07949 10.0318L-8.44278 13.2067L-8.87649 15.962L-8.4805 21.4611L-8.44278 22.0701L-8.05689 22.3993L-6.35064 22.4019L-5.80084 22.2356L-7.32734 19.7498L-6.57005 16.5929L-6.17343 16.5936L-4.78958 20.7908L-4.07625 21.8684L-3.72434 22.085L-1.84089 22.0864L-1.59922 21.784L-3.22965 20.7825L-4.33513 17.3779L-4.05802 16.8252L-3.40863 16.8855L-3.00091 17.8838L-2.41031 16.9107L-1.83805 17.888L-1.35332 16.8269L0.0734081 15.7301L5.13625 15.2453L5.986 16.2842L6.70217 21.3628L7.07893 22.0926L8.80402 22.0919L8.99 21.8184L7.94147 20.359L7.81547 17.58L8.38167 17.8943L8.97808 19.7403L9.73657 22.1373L10.0767 22.401L11.6202 22.4019L11.7483 22.0534L11.2971 21.6357L9.84164 18.7914L10.1772 15.8106L11.808 14.6042L14.1837 10.1915L16.918 8.92921L19.4325 8.64295L19.6481 8.40923L20 7.41746L19.8304 7.00741Z" fill="#607089"/>
</g>
<defs>
<clipPath id="clip0_34_374">
<rect width="40" height="40" fill="white"/>
</clipPath>
</defs>
</svg>
