<svg width="32" height="31" viewBox="0 0 32 31" fill="none" xmlns="http://www.w3.org/2000/svg">
<path d="M9.56817 9.57126H5.37676C2.95411 9.57126 0.992401 7.60955 0.992401 5.1869V3.80406C0.992401 3.43959 1.29255 3.13943 1.65702 3.13943H5.17309C7.60646 3.13943 9.56817 5.10114 9.56817 7.5238V9.57126Z" fill="url(#paint0_linear_29_5)"/>
<path d="M9.56817 9.57126H5.37676C2.95411 9.57126 0.992401 7.60955 0.992401 5.1869V3.80406C0.992401 3.43959 1.29255 3.13943 1.65702 3.13943H5.17309C7.60646 3.13943 9.56817 5.10114 9.56817 7.5238V9.57126Z" fill="url(#paint1_linear_29_5)"/>
<path d="M9.56817 9.57126H5.37676C2.95411 9.57126 0.992401 7.60955 0.992401 5.1869V3.80406C0.992401 3.43959 1.29255 3.13943 1.65702 3.13943H5.17309C7.60646 3.13943 9.56817 5.10114 9.56817 7.5238V9.57126Z" fill="url(#paint2_radial_29_5)"/>
<path d="M16 31C17.6063 31 19.1468 30.3619 20.2827 29.226C21.4185 28.0902 22.0566 26.5497 22.0566 24.9434C22.0566 23.337 21.4185 21.7965 20.2827 20.6607C19.1468 19.5248 17.6063 18.8867 16 18.8867C14.3936 18.8867 12.8531 19.5248 11.7173 20.6607C10.5814 21.7965 9.94333 23.337 9.94333 24.9434C9.94333 26.5497 10.5814 28.0902 11.7173 29.226C12.8531 30.3619 14.3936 31 16 31Z" fill="url(#paint3_radial_29_5)"/>
<path d="M13.9954 5.54068C13.6494 4.94203 13.4539 4.26827 13.4259 3.57736C13.3979 2.88646 13.5382 2.19909 13.8346 1.57439C13.9847 1.24208 13.6631 0.899048 13.3308 1.02768C13.0628 1.13488 12.8055 1.26352 12.559 1.43503C11.6784 2.02177 11.045 2.91257 10.7799 3.93702C10.5149 4.96148 10.6369 6.04768 11.1225 6.98784C11.3898 7.50158 11.7585 7.95576 12.2063 8.3229C12.6541 8.69005 13.1718 8.96253 13.7279 9.12387C14.2841 9.28521 14.8672 9.33204 15.442 9.26155C16.0168 9.19105 16.5713 9.00468 17.072 8.71372C17.5651 8.42429 17.9832 8.05982 18.3047 7.64175C16.6217 7.87758 14.8959 7.09504 13.9954 5.54068Z" fill="url(#paint4_linear_29_5)"/>
<path d="M13.9954 5.54068C13.6494 4.94203 13.4539 4.26827 13.4259 3.57736C13.3979 2.88646 13.5382 2.19909 13.8346 1.57439C13.9847 1.24208 13.6631 0.899048 13.3308 1.02768C13.0628 1.13488 12.8055 1.26352 12.559 1.43503C11.6784 2.02177 11.045 2.91257 10.7799 3.93702C10.5149 4.96148 10.6369 6.04768 11.1225 6.98784C11.3898 7.50158 11.7585 7.95576 12.2063 8.3229C12.6541 8.69005 13.1718 8.96253 13.7279 9.12387C14.2841 9.28521 14.8672 9.33204 15.442 9.26155C16.0168 9.19105 16.5713 9.00468 17.072 8.71372C17.5651 8.42429 17.9832 8.05982 18.3047 7.64175C16.6217 7.87758 14.8959 7.09504 13.9954 5.54068Z" fill="url(#paint5_linear_29_5)"/>
<path d="M13.9954 5.54068C13.6494 4.94203 13.4539 4.26827 13.4259 3.57736C13.3979 2.88646 13.5382 2.19909 13.8346 1.57439C13.9847 1.24208 13.6631 0.899048 13.3308 1.02768C13.0628 1.13488 12.8055 1.26352 12.559 1.43503C11.6784 2.02177 11.045 2.91257 10.7799 3.93702C10.5149 4.96148 10.6369 6.04768 11.1225 6.98784C11.3898 7.50158 11.7585 7.95576 12.2063 8.3229C12.6541 8.69005 13.1718 8.96253 13.7279 9.12387C14.2841 9.28521 14.8672 9.33204 15.442 9.26155C16.0168 9.19105 16.5713 9.00468 17.072 8.71372C17.5651 8.42429 17.9832 8.05982 18.3047 7.64175C16.6217 7.87758 14.8959 7.09504 13.9954 5.54068Z" fill="url(#paint6_radial_29_5)" fill-opacity="0.75"/>
<g filter="url(#filter0_f_29_5)">
<path d="M13.4378 1.53796C12.9458 2.12433 12.1879 3.75266 13.0851 5.57501" stroke="url(#paint7_linear_29_5)" stroke-width="0.25" stroke-linecap="round"/>
</g>
<path d="M19.0765 5.54068C19.8054 4.27576 19.8161 2.79644 19.2373 1.57439C19.0872 1.24208 19.4088 0.899048 19.7411 1.02768C20.0091 1.13488 20.2664 1.26352 20.5129 1.43503C21.3935 2.02177 22.0269 2.91257 22.2919 3.93702C22.557 4.96148 22.435 6.04768 21.9494 6.98784C21.6821 7.50158 21.3134 7.95576 20.8656 8.3229C20.4178 8.69005 19.9001 8.96253 19.3439 9.12387C18.7878 9.28521 18.2047 9.33204 17.6299 9.26155C17.0551 9.19105 16.5006 9.00468 15.9999 8.71372C15.5068 8.42429 15.0887 8.05982 14.7672 7.64175C16.4501 7.87758 18.176 7.09504 19.0765 5.54068Z" fill="url(#paint8_linear_29_5)"/>
<path d="M19.0765 5.54068C19.8054 4.27576 19.8161 2.79644 19.2373 1.57439C19.0872 1.24208 19.4088 0.899048 19.7411 1.02768C20.0091 1.13488 20.2664 1.26352 20.5129 1.43503C21.3935 2.02177 22.0269 2.91257 22.2919 3.93702C22.557 4.96148 22.435 6.04768 21.9494 6.98784C21.6821 7.50158 21.3134 7.95576 20.8656 8.3229C20.4178 8.69005 19.9001 8.96253 19.3439 9.12387C18.7878 9.28521 18.2047 9.33204 17.6299 9.26155C17.0551 9.19105 16.5006 9.00468 15.9999 8.71372C15.5068 8.42429 15.0887 8.05982 14.7672 7.64175C16.4501 7.87758 18.176 7.09504 19.0765 5.54068Z" fill="url(#paint9_linear_29_5)"/>
<g filter="url(#filter1_f_29_5)">
<path d="M20.0371 1.62155C20.7232 1.93993 21.9967 4.10102 21.4435 5.77544" stroke="url(#paint10_linear_29_5)" stroke-width="0.25" stroke-linecap="round"/>
</g>
<path d="M19.992 5.28342H10.9746C8.21964 5.28342 6.35226 7.89688 6.35226 10.311V22.9388H25.6478V10.311C25.6478 7.53456 23.1147 5.28342 19.992 5.28342Z" fill="url(#paint11_linear_29_5)"/>
<path d="M19.992 5.28342H10.9746C8.21964 5.28342 6.35226 7.89688 6.35226 10.311V22.9388H25.6478V10.311C25.6478 7.53456 23.1147 5.28342 19.992 5.28342Z" fill="url(#paint12_linear_29_5)"/>
<path d="M19.992 5.28342H10.9746C8.21964 5.28342 6.35226 7.89688 6.35226 10.311V22.9388H25.6478V10.311C25.6478 7.53456 23.1147 5.28342 19.992 5.28342Z" fill="url(#paint13_linear_29_5)"/>
<path d="M19.992 5.28342H10.9746C8.21964 5.28342 6.35226 7.89688 6.35226 10.311V22.9388H25.6478V10.311C25.6478 7.53456 23.1147 5.28342 19.992 5.28342Z" fill="url(#paint14_radial_29_5)"/>
<path d="M5.18388 4.74741C6.43809 4.74741 7.51006 5.58354 7.84237 6.73055C7.4779 7.09502 7.17775 7.51309 6.9312 7.96332H5.37684C4.64049 7.96332 3.9343 7.67081 3.41362 7.15013C2.89295 6.62945 2.60043 5.92326 2.60043 5.18691V4.97252C2.60043 4.84388 2.69691 4.74741 2.82555 4.74741H5.18388Z" fill="url(#paint15_radial_29_5)"/>
<path d="M5.18388 4.74741C6.43809 4.74741 7.51006 5.58354 7.84237 6.73055C7.4779 7.09502 7.17775 7.51309 6.9312 7.96332H5.37684C4.64049 7.96332 3.9343 7.67081 3.41362 7.15013C2.89295 6.62945 2.60043 5.92326 2.60043 5.18691V4.97252C2.60043 4.84388 2.69691 4.74741 2.82555 4.74741H5.18388Z" fill="url(#paint16_radial_29_5)"/>
<path d="M22.4319 9.57126H26.6233C29.0459 9.57126 31.0076 7.60955 31.0076 5.1869V3.80406C31.0076 3.43959 30.7075 3.13943 30.3323 3.13943H26.8162C24.3936 3.13943 22.4319 5.10114 22.4319 7.5238V9.57126Z" fill="url(#paint17_linear_29_5)"/>
<path d="M22.4319 9.57126H26.6233C29.0459 9.57126 31.0076 7.60955 31.0076 5.1869V3.80406C31.0076 3.43959 30.7075 3.13943 30.3323 3.13943H26.8162C24.3936 3.13943 22.4319 5.10114 22.4319 7.5238V9.57126Z" fill="url(#paint18_linear_29_5)"/>
<path d="M22.4319 9.57126H26.6233C29.0459 9.57126 31.0076 7.60955 31.0076 5.1869V3.80406C31.0076 3.43959 30.7075 3.13943 30.3323 3.13943H26.8162C24.3936 3.13943 22.4319 5.10114 22.4319 7.5238V9.57126Z" fill="url(#paint19_radial_29_5)"/>
<path d="M22.7534 9.5713H25.5941C25.2404 7.14865 23.15 5.28342 20.6202 5.28342H16L18.5513 7.83471C19.1033 8.386 19.7586 8.82311 20.4796 9.12109C21.2006 9.41906 21.9733 9.57204 22.7534 9.5713Z" fill="url(#paint20_radial_29_5)"/>
<path d="M16 18.6402V13.8056C16 10.2938 11.9587 5.77115 9.01075 5.77115C7.81336 6.35001 6.35226 7.96547 6.35226 10.118V20.291L16 18.6402Z" fill="url(#paint21_linear_29_5)"/>
<path d="M16 18.6402V13.8056C16 10.2938 11.9587 5.77115 9.01075 5.77115C7.81336 6.35001 6.35226 7.96547 6.35226 10.118V20.291L16 18.6402Z" fill="url(#paint22_linear_29_5)"/>
<path d="M26.7197 22.8863C26.6768 19.6597 24.0076 17.0655 20.8024 17.0762H11.294C8.04591 17.0119 5.3231 19.6382 5.28023 22.8863C5.26915 23.6676 5.41345 24.4434 5.70475 25.1685C5.99606 25.8937 6.42855 26.5536 6.97711 27.1102C7.52567 27.6667 8.17935 28.1087 8.90019 28.4104C9.62102 28.7122 10.3946 28.8677 11.1761 28.8679H20.8238C24.104 28.8679 26.7625 26.188 26.7197 22.8863Z" fill="url(#paint23_linear_29_5)"/>
<path d="M26.7197 22.8863C26.6768 19.6597 24.0076 17.0655 20.8024 17.0762H11.294C8.04591 17.0119 5.3231 19.6382 5.28023 22.8863C5.26915 23.6676 5.41345 24.4434 5.70475 25.1685C5.99606 25.8937 6.42855 26.5536 6.97711 27.1102C7.52567 27.6667 8.17935 28.1087 8.90019 28.4104C9.62102 28.7122 10.3946 28.8677 11.1761 28.8679H20.8238C24.104 28.8679 26.7625 26.188 26.7197 22.8863Z" fill="url(#paint24_radial_29_5)"/>
<path d="M26.7197 22.8863C26.6768 19.6597 24.0076 17.0655 20.8024 17.0762H11.294C8.04591 17.0119 5.3231 19.6382 5.28023 22.8863C5.26915 23.6676 5.41345 24.4434 5.70475 25.1685C5.99606 25.8937 6.42855 26.5536 6.97711 27.1102C7.52567 27.6667 8.17935 28.1087 8.90019 28.4104C9.62102 28.7122 10.3946 28.8677 11.1761 28.8679H20.8238C24.104 28.8679 26.7625 26.188 26.7197 22.8863Z" fill="url(#paint25_linear_29_5)"/>
<path d="M26.7197 22.8863C26.6768 19.6597 24.0076 17.0655 20.8024 17.0762H11.294C8.04591 17.0119 5.3231 19.6382 5.28023 22.8863C5.26915 23.6676 5.41345 24.4434 5.70475 25.1685C5.99606 25.8937 6.42855 26.5536 6.97711 27.1102C7.52567 27.6667 8.17935 28.1087 8.90019 28.4104C9.62102 28.7122 10.3946 28.8677 11.1761 28.8679H20.8238C24.104 28.8679 26.7625 26.188 26.7197 22.8863Z" fill="url(#paint26_linear_29_5)"/>
<path d="M26.8162 4.74741C25.562 4.74741 24.49 5.58354 24.1577 6.73055C24.5222 7.0843 24.8331 7.50237 25.0689 7.96332H26.6232C27.3596 7.96332 28.0658 7.67081 28.5865 7.15013C29.1071 6.62945 29.3997 5.92326 29.3997 5.18691V4.97252C29.3997 4.84388 29.3032 4.74741 29.1745 4.74741H26.8162Z" fill="#F4B9A8"/>
<g filter="url(#filter2_d_29_5)">
<path d="M26.8162 4.74741C25.562 4.74741 24.49 5.58354 24.1577 6.73055C24.5222 7.0843 24.8331 7.50237 25.0689 7.96332H26.6232C27.3596 7.96332 28.0658 7.67081 28.5865 7.15013C29.1071 6.62945 29.3997 5.92326 29.3997 5.18691V4.97252C29.3997 4.84388 29.3032 4.74741 29.1745 4.74741H26.8162Z" fill="url(#paint27_radial_29_5)"/>
</g>
<path d="M12.784 22.435C13.0683 22.435 13.341 22.322 13.542 22.121C13.743 21.92 13.856 21.6473 13.856 21.363C13.856 21.0787 13.743 20.806 13.542 20.605C13.341 20.404 13.0683 20.291 12.784 20.291C12.4997 20.291 12.227 20.404 12.026 20.605C11.825 20.806 11.712 21.0787 11.712 21.363C11.712 21.6473 11.825 21.92 12.026 22.121C12.227 22.322 12.4997 22.435 12.784 22.435Z" fill="url(#paint28_radial_29_5)"/>
<path d="M19.2159 22.435C19.5002 22.435 19.7728 22.322 19.9739 22.121C20.1749 21.92 20.2878 21.6473 20.2878 21.363C20.2878 21.0787 20.1749 20.806 19.9739 20.605C19.7728 20.404 19.5002 20.291 19.2159 20.291C18.9316 20.291 18.6589 20.404 18.4579 20.605C18.2568 20.806 18.1439 21.0787 18.1439 21.363C18.1439 21.6473 18.2568 21.92 18.4579 22.121C18.6589 22.322 18.9316 22.435 19.2159 22.435Z" fill="url(#paint29_radial_29_5)"/>
<g filter="url(#filter3_f_29_5)">
<path d="M12.5161 13.8409C12.5161 13.3507 12.1189 12.9533 11.629 12.9533C11.1391 12.9533 10.7419 13.3507 10.7419 13.8409V14.9483C10.7419 15.4385 11.1391 15.8359 11.629 15.8359C12.1189 15.8359 12.5161 15.4385 12.5161 14.9483V13.8409Z" fill="#4E4854"/>
</g>
<path d="M12.5162 13.5912C12.5162 13.1472 12.1562 12.7872 11.7122 12.7872C11.2682 12.7872 10.9082 13.1472 10.9082 13.5912V15.1992C10.9082 15.6432 11.2682 16.0031 11.7122 16.0031C12.1562 16.0031 12.5162 15.6432 12.5162 15.1992V13.5912Z" fill="url(#paint30_linear_29_5)"/>
<path d="M12.5162 13.5912C12.5162 13.1472 12.1562 12.7872 11.7122 12.7872C11.2682 12.7872 10.9082 13.1472 10.9082 13.5912V15.1992C10.9082 15.6432 11.2682 16.0031 11.7122 16.0031C12.1562 16.0031 12.5162 15.6432 12.5162 15.1992V13.5912Z" fill="url(#paint31_linear_29_5)"/>
<path d="M12.5162 13.5912C12.5162 13.1472 12.1562 12.7872 11.7122 12.7872C11.2682 12.7872 10.9082 13.1472 10.9082 13.5912V15.1992C10.9082 15.6432 11.2682 16.0031 11.7122 16.0031C12.1562 16.0031 12.5162 15.6432 12.5162 15.1992V13.5912Z" fill="url(#paint32_linear_29_5)"/>
<g filter="url(#filter4_f_29_5)">
<path d="M19.9857 12.9533H19.9846C19.5867 12.9533 19.2642 13.2759 19.2642 13.6737V15.1155C19.2642 15.5134 19.5867 15.8359 19.9846 15.8359H19.9857C20.3835 15.8359 20.706 15.5134 20.706 15.1155V13.6737C20.706 13.2759 20.3835 12.9533 19.9857 12.9533Z" fill="#BBB1BB"/>
</g>
<path d="M21.0919 13.5912C21.0919 13.1472 20.732 12.7872 20.2879 12.7872C19.8439 12.7872 19.4839 13.1472 19.4839 13.5912V15.1992C19.4839 15.6432 19.8439 16.0031 20.2879 16.0031C20.732 16.0031 21.0919 15.6432 21.0919 15.1992V13.5912Z" fill="url(#paint33_linear_29_5)"/>
<path d="M21.0919 13.5912C21.0919 13.1472 20.732 12.7872 20.2879 12.7872C19.8439 12.7872 19.4839 13.1472 19.4839 13.5912V15.1992C19.4839 15.6432 19.8439 16.0031 20.2879 16.0031C20.732 16.0031 21.0919 15.6432 21.0919 15.1992V13.5912Z" fill="url(#paint34_linear_29_5)"/>
<path d="M21.0919 13.5912C21.0919 13.1472 20.732 12.7872 20.2879 12.7872C19.8439 12.7872 19.4839 13.1472 19.4839 13.5912V15.1992C19.4839 15.6432 19.8439 16.0031 20.2879 16.0031C20.732 16.0031 21.0919 15.6432 21.0919 15.1992V13.5912Z" fill="url(#paint35_linear_29_5)"/>
<path d="M21.0919 13.5912C21.0919 13.1472 20.732 12.7872 20.2879 12.7872C19.8439 12.7872 19.4839 13.1472 19.4839 13.5912V15.1992C19.4839 15.6432 19.8439 16.0031 20.2879 16.0031C20.732 16.0031 21.0919 15.6432 21.0919 15.1992V13.5912Z" fill="url(#paint36_radial_29_5)"/>
<g filter="url(#filter5_f_29_5)">
<path d="M20.295 23.5077C21.7435 25.1144 23.9829 25.4568 25.2968 24.2723C26.6107 23.0879 26.5016 20.8251 25.0532 19.2183C23.6047 17.6115 21.3653 17.2692 20.0514 18.4537C18.7375 19.6381 18.8466 21.9009 20.295 23.5077Z" fill="url(#paint37_radial_29_5)"/>
</g>
<defs>
<filter id="filter0_f_29_5" x="11.7932" y="0.662964" width="2.51959" height="5.78708" filterUnits="userSpaceOnUse" color-interpolation-filters="sRGB">
<feFlood flood-opacity="0" result="BackgroundImageFix"/>
<feBlend mode="normal" in="SourceGraphic" in2="BackgroundImageFix" result="shape"/>
<feGaussianBlur stdDeviation="0.375" result="effect1_foregroundBlur_29_5"/>
</filter>
<filter id="filter1_f_29_5" x="19.1621" y="0.746521" width="3.29207" height="5.90396" filterUnits="userSpaceOnUse" color-interpolation-filters="sRGB">
<feFlood flood-opacity="0" result="BackgroundImageFix"/>
<feBlend mode="normal" in="SourceGraphic" in2="BackgroundImageFix" result="shape"/>
<feGaussianBlur stdDeviation="0.375" result="effect1_foregroundBlur_29_5"/>
</filter>
<filter id="filter2_d_29_5" x="23.6577" y="4.54741" width="6.24194" height="4.21591" filterUnits="userSpaceOnUse" color-interpolation-filters="sRGB">
<feFlood flood-opacity="0" result="BackgroundImageFix"/>
<feColorMatrix in="SourceAlpha" type="matrix" values="0 0 0 0 0 0 0 0 0 0 0 0 0 0 0 0 0 0 127 0" result="hardAlpha"/>
<feOffset dy="0.3"/>
<feGaussianBlur stdDeviation="0.25"/>
<feComposite in2="hardAlpha" operator="out"/>
<feColorMatrix type="matrix" values="0 0 0 0 0.890196 0 0 0 0 0.486275 0 0 0 0 0.490196 0 0 0 1 0"/>
<feBlend mode="normal" in2="BackgroundImageFix" result="effect1_dropShadow_29_5"/>
<feBlend mode="normal" in="SourceGraphic" in2="effect1_dropShadow_29_5" result="shape"/>
</filter>
<filter id="filter3_f_29_5" x="10.2419" y="12.4533" width="2.77411" height="3.88254" filterUnits="userSpaceOnUse" color-interpolation-filters="sRGB">
<feFlood flood-opacity="0" result="BackgroundImageFix"/>
<feBlend mode="normal" in="SourceGraphic" in2="BackgroundImageFix" result="shape"/>
<feGaussianBlur stdDeviation="0.25" result="effect1_foregroundBlur_29_5"/>
</filter>
<filter id="filter4_f_29_5" x="18.7642" y="12.4533" width="2.4418" height="3.88254" filterUnits="userSpaceOnUse" color-interpolation-filters="sRGB">
<feFlood flood-opacity="0" result="BackgroundImageFix"/>
<feBlend mode="normal" in="SourceGraphic" in2="BackgroundImageFix" result="shape"/>
<feGaussianBlur stdDeviation="0.25" result="effect1_foregroundBlur_29_5"/>
</filter>
<filter id="filter5_f_29_5" x="18.1331" y="16.7484" width="9.082" height="9.22928" filterUnits="userSpaceOnUse" color-interpolation-filters="sRGB">
<feFlood flood-opacity="0" result="BackgroundImageFix"/>
<feBlend mode="normal" in="SourceGraphic" in2="BackgroundImageFix" result="shape"/>
<feGaussianBlur stdDeviation="0.5" result="effect1_foregroundBlur_29_5"/>
</filter>
<linearGradient id="paint0_linear_29_5" x1="3.97355" y1="7.73498" x2="6.45302" y2="4.88782" gradientUnits="userSpaceOnUse">
<stop stop-color="#626061"/>
<stop offset="1" stop-color="#727273"/>
</linearGradient>
<linearGradient id="paint1_linear_29_5" x1="5.61581" y1="10.2477" x2="5.61581" y2="6.9653" gradientUnits="userSpaceOnUse">
<stop stop-color="#5F4478"/>
<stop offset="1" stop-color="#5C4C69" stop-opacity="0"/>
</linearGradient>
<radialGradient id="paint2_radial_29_5" cx="0" cy="0" r="1" gradientUnits="userSpaceOnUse" gradientTransform="translate(8.09421 4.85459) rotate(144.583) scale(1.84975 3.31304)">
<stop stop-color="#878688"/>
<stop offset="1" stop-color="#878688" stop-opacity="0"/>
</radialGradient>
<radialGradient id="paint3_radial_29_5" cx="0" cy="0" r="1" gradientUnits="userSpaceOnUse" gradientTransform="translate(16 29.2688) rotate(90) scale(1.13897 4.85552)">
<stop stop-color="#D04568"/>
<stop offset="1" stop-color="#DA6585"/>
</radialGradient>
<linearGradient id="paint4_linear_29_5" x1="17.9038" y1="0.999813" x2="17.9038" y2="7.53455" gradientUnits="userSpaceOnUse">
<stop stop-color="#F6D4AD"/>
<stop offset="1" stop-color="#D9AE7F"/>
</linearGradient>
<linearGradient id="paint5_linear_29_5" x1="12.8849" y1="7.90331" x2="14.0908" y2="5.14727" gradientUnits="userSpaceOnUse">
<stop stop-color="#CB9964"/>
<stop offset="1" stop-color="#CB9964" stop-opacity="0"/>
</linearGradient>
<radialGradient id="paint6_radial_29_5" cx="0" cy="0" r="1" gradientUnits="userSpaceOnUse" gradientTransform="translate(13.0853 3.84911) rotate(-158.276) scale(2.30785 4.10855)">
<stop offset="0.687" stop-color="#CB9964" stop-opacity="0"/>
<stop offset="1" stop-color="#CB9964"/>
</radialGradient>
<linearGradient id="paint7_linear_29_5" x1="13.203" y1="2.15756" x2="13.4367" y2="8.02017" gradientUnits="userSpaceOnUse">
<stop stop-color="#FFF5E8"/>
<stop offset="1" stop-color="#FFE3BF" stop-opacity="0"/>
</linearGradient>
<linearGradient id="paint8_linear_29_5" x1="22.0298" y1="-1.30921" x2="22.0298" y2="7.13256" gradientUnits="userSpaceOnUse">
<stop stop-color="#F6D4AD"/>
<stop offset="1" stop-color="#D9AE7F"/>
</linearGradient>
<linearGradient id="paint9_linear_29_5" x1="22.8337" y1="6.79703" x2="20.7906" y2="5.14727" gradientUnits="userSpaceOnUse">
<stop stop-color="#CB9964"/>
<stop offset="1" stop-color="#CB9964" stop-opacity="0"/>
</linearGradient>
<linearGradient id="paint10_linear_29_5" x1="20.5409" y1="2.15754" x2="20.3062" y2="8.02015" gradientUnits="userSpaceOnUse">
<stop stop-color="#FFF5E8"/>
<stop offset="1" stop-color="#FFE3BF" stop-opacity="0"/>
</linearGradient>
<linearGradient id="paint11_linear_29_5" x1="11.3101" y1="18.9907" x2="29.2657" y2="18.9907" gradientUnits="userSpaceOnUse">
<stop stop-color="#D4D1D7"/>
<stop offset="1" stop-color="#FBF6FF"/>
</linearGradient>
<linearGradient id="paint12_linear_29_5" x1="23.5038" y1="18.9907" x2="26.4517" y2="18.9907" gradientUnits="userSpaceOnUse">
<stop stop-color="#D4D1D7" stop-opacity="0"/>
<stop offset="1" stop-color="#D4D1D7"/>
</linearGradient>
<linearGradient id="paint13_linear_29_5" x1="14.7608" y1="8.37177" x2="12.1473" y2="4.72063" gradientUnits="userSpaceOnUse">
<stop stop-color="#C3C0C7" stop-opacity="0"/>
<stop offset="1" stop-color="#BCB7C0"/>
</linearGradient>
<radialGradient id="paint14_radial_29_5" cx="0" cy="0" r="1" gradientUnits="userSpaceOnUse" gradientTransform="translate(10.4397 6.39505) rotate(45.924) scale(5.87525 5.02967)">
<stop stop-color="#D4D1D7"/>
<stop offset="1" stop-color="#D4D1D7" stop-opacity="0"/>
</radialGradient>
<radialGradient id="paint15_radial_29_5" cx="0" cy="0" r="1" gradientUnits="userSpaceOnUse" gradientTransform="translate(4.32631 7.38446) rotate(-150.627) scale(3.51733 2.37968)">
<stop stop-color="#FFB6AE"/>
<stop offset="1" stop-color="#E58082"/>
</radialGradient>
<radialGradient id="paint16_radial_29_5" cx="0" cy="0" r="1" gradientUnits="userSpaceOnUse" gradientTransform="translate(5.48082 4.45154) rotate(97.7793) scale(1.92049 3.10488)">
<stop stop-color="#DB7376"/>
<stop offset="1" stop-color="#DB7376" stop-opacity="0"/>
</radialGradient>
<linearGradient id="paint17_linear_29_5" x1="25.413" y1="7.73498" x2="27.8925" y2="4.88782" gradientUnits="userSpaceOnUse">
<stop stop-color="#626061"/>
<stop offset="1" stop-color="#727273"/>
</linearGradient>
<linearGradient id="paint18_linear_29_5" x1="27.0553" y1="9.97968" x2="27.0553" y2="6.89777" gradientUnits="userSpaceOnUse">
<stop stop-color="#5C4C69"/>
<stop offset="1" stop-color="#5C4C69" stop-opacity="0"/>
</linearGradient>
<radialGradient id="paint19_radial_29_5" cx="0" cy="0" r="1" gradientUnits="userSpaceOnUse" gradientTransform="translate(29.7511 4.52051) rotate(141.017) scale(4.63273 1.57153)">
<stop stop-color="#878688"/>
<stop offset="1" stop-color="#878688" stop-opacity="0"/>
</radialGradient>
<radialGradient id="paint20_radial_29_5" cx="0" cy="0" r="1" gradientUnits="userSpaceOnUse" gradientTransform="translate(21.2259 9.5713) rotate(-82.9251) scale(3.80776 4.4018)">
<stop stop-color="#8C8B8D"/>
<stop offset="1" stop-color="#747474"/>
</radialGradient>
<linearGradient id="paint21_linear_29_5" x1="16.402" y1="11.399" x2="9.09973" y2="11.399" gradientUnits="userSpaceOnUse">
<stop stop-color="#706973"/>
<stop offset="1" stop-color="#6B696D"/>
</linearGradient>
<linearGradient id="paint22_linear_29_5" x1="8.22821" y1="17.044" x2="4.67785" y2="17.044" gradientUnits="userSpaceOnUse">
<stop stop-color="#828183" stop-opacity="0"/>
<stop offset="0.896" stop-color="#828183"/>
<stop offset="1" stop-color="#828183"/>
</linearGradient>
<linearGradient id="paint23_linear_29_5" x1="5.88375" y1="21.4702" x2="20.6233" y2="21.4702" gradientUnits="userSpaceOnUse">
<stop stop-color="#E7A8A9"/>
<stop offset="1" stop-color="#F3B9AD"/>
</linearGradient>
<radialGradient id="paint24_radial_29_5" cx="0" cy="0" r="1" gradientUnits="userSpaceOnUse" gradientTransform="translate(17.2059 20.2642) rotate(93.2809) scale(10.536 22.3165)">
<stop offset="0.432" stop-color="#D17DAE" stop-opacity="0"/>
<stop offset="1" stop-color="#CE79AD"/>
</radialGradient>
<linearGradient id="paint25_linear_29_5" x1="16.6035" y1="24.5521" x2="16.6035" y2="30.3804" gradientUnits="userSpaceOnUse">
<stop offset="0.432" stop-color="#D17DAE" stop-opacity="0"/>
<stop offset="1" stop-color="#AD618F"/>
</linearGradient>
<linearGradient id="paint26_linear_29_5" x1="16.6035" y1="24.5521" x2="16.6035" y2="13.8989" gradientUnits="userSpaceOnUse">
<stop offset="0.604" stop-color="#DE9E8F" stop-opacity="0"/>
<stop offset="1" stop-color="#DE9E8F"/>
</linearGradient>
<radialGradient id="paint27_radial_29_5" cx="0" cy="0" r="1" gradientUnits="userSpaceOnUse" gradientTransform="translate(24.6433 7.467) rotate(-31.4045) scale(5.22007 1.97037)">
<stop stop-color="#FFB6AE"/>
<stop offset="0.931" stop-color="#E58082"/>
</radialGradient>
<radialGradient id="paint28_radial_29_5" cx="0" cy="0" r="1" gradientUnits="userSpaceOnUse" gradientTransform="translate(12.0808 21.363) scale(1.23947)">
<stop stop-color="#FFA0A8"/>
<stop offset="1" stop-color="#FE7883"/>
</radialGradient>
<radialGradient id="paint29_radial_29_5" cx="0" cy="0" r="1" gradientUnits="userSpaceOnUse" gradientTransform="translate(18.6627 21.363) scale(1.18922)">
<stop stop-color="#FFA0A8"/>
<stop offset="1" stop-color="#FE7883"/>
</radialGradient>
<linearGradient id="paint30_linear_29_5" x1="12.5162" y1="14.3952" x2="11.5857" y2="14.3952" gradientUnits="userSpaceOnUse">
<stop offset="0.307" stop-color="#615154"/>
<stop offset="1" stop-color="#392833"/>
</linearGradient>
<linearGradient id="paint31_linear_29_5" x1="12.767" y1="16.0503" x2="12.767" y2="14.5388" gradientUnits="userSpaceOnUse">
<stop stop-color="#552D52"/>
<stop offset="1" stop-color="#552D52" stop-opacity="0"/>
</linearGradient>
<linearGradient id="paint32_linear_29_5" x1="10.3765" y1="15.1531" x2="11.2309" y2="15.1531" gradientUnits="userSpaceOnUse">
<stop stop-color="#594C4F"/>
<stop offset="1" stop-color="#594C4F" stop-opacity="0"/>
</linearGradient>
<linearGradient id="paint33_linear_29_5" x1="21.0919" y1="14.3952" x2="20.1614" y2="14.3952" gradientUnits="userSpaceOnUse">
<stop offset="0.225" stop-color="#594C4F"/>
<stop offset="1" stop-color="#392833"/>
</linearGradient>
<linearGradient id="paint34_linear_29_5" x1="21.3427" y1="16.0503" x2="21.3427" y2="14.5388" gradientUnits="userSpaceOnUse">
<stop stop-color="#552D52"/>
<stop offset="1" stop-color="#552D52" stop-opacity="0"/>
</linearGradient>
<linearGradient id="paint35_linear_29_5" x1="18.9522" y1="15.1531" x2="20.0596" y2="15.1531" gradientUnits="userSpaceOnUse">
<stop stop-color="#594C4F"/>
<stop offset="1" stop-color="#594C4F" stop-opacity="0"/>
</linearGradient>
<radialGradient id="paint36_radial_29_5" cx="0" cy="0" r="1" gradientUnits="userSpaceOnUse" gradientTransform="translate(20.6009 14.5881) rotate(-109.485) scale(1.85953 1.80765)">
<stop offset="0.814" stop-color="#594C4F" stop-opacity="0"/>
<stop offset="1" stop-color="#594C4F"/>
</radialGradient>
<radialGradient id="paint37_radial_29_5" cx="0" cy="0" r="1" gradientUnits="userSpaceOnUse" gradientTransform="translate(24.0393 20.1961) rotate(138.523) scale(4.99848 4.80709)">
<stop stop-color="#FFD9CF"/>
<stop offset="1" stop-color="#FFD9CF" stop-opacity="0"/>
</radialGradient>
</defs>
</svg>
