<svg width="30" height="21" viewBox="0 0 30 21" fill="none" xmlns="http://www.w3.org/2000/svg">
<path d="M29.8304 5.00741L26.5982 1.63542L28.005 0.738183L28.0871 0.0389113L27.4346 0L25.7423 1.21723L23.6305 1.21906L22.3378 0.429729L21.8748 0.524264L21.8816 1.03743L22.7148 1.96033L22.605 2.44512L12.7984 3.49976L2.64049 3.21609L1.54586 3.67496L0.739571 4.69952L0.324725 7.09602L0.251443 8.81872L0 10.4273L0.0691199 12.0295L0.351906 12.0873L0.762968 11.6348L1.09715 10.1315L0.826286 8.04604L0.920506 8.03185L1.55722 11.2067L1.12351 13.962L1.5195 19.4611L1.55722 20.0701L1.94311 20.3993L3.64936 20.4019L4.19916 20.2356L2.67266 17.7498L3.42995 14.5929L3.82657 14.5936L5.21042 18.7908L5.92375 19.8684L6.27566 20.085L8.15911 20.0864L8.40078 19.784L6.77035 18.7825L5.66487 15.3779L5.94198 14.8252L6.59137 14.8855L6.99909 15.8838L7.58969 14.9107L8.16195 15.888L8.64667 14.8269L10.0734 13.7301L15.1363 13.2453L15.986 14.2842L16.7022 19.3628L17.0789 20.0926L18.804 20.0919L18.99 19.8184L17.9415 18.359L17.8155 15.58L18.3817 15.8943L18.9781 17.7403L19.7366 20.1373L20.0767 20.401L21.6202 20.4019L21.7483 20.0534L21.2971 19.6357L19.8416 16.7914L20.1772 13.8106L21.808 12.6042L24.1837 8.19153L26.918 6.92921L29.4325 6.64295L29.6481 6.40923L30 5.41746L29.8304 5.00741Z" fill="#607089"/>
</svg>
