<svg width="50" height="30" viewBox="0 0 50 30" fill="none" xmlns="http://www.w3.org/2000/svg">
<path d="M37.2449 30C36.5221 30 35.9167 29.7512 35.4286 29.2536C34.9388 28.7577 34.6939 28.1425 34.6939 27.4082C34.6939 26.6739 34.9388 26.0587 35.4286 25.5629C35.9167 25.0652 36.5221 24.8164 37.2449 24.8164H41.3265L28.0612 11.4687L19.6429 20.0216C19.4303 20.2376 19.165 20.4104 18.8469 20.54C18.5272 20.6695 18.1973 20.7343 17.8571 20.7343C17.517 20.7343 17.1981 20.6695 16.9005 20.54C16.6029 20.4104 16.3265 20.2376 16.0714 20.0216L0.70153 4.27646C0.233843 3.80129 0 3.21814 0 2.527C0 1.83585 0.255102 1.2311 0.765306 0.712742C1.23299 0.23758 1.82823 0 2.55102 0C3.27381 0 3.86905 0.23758 4.33673 0.712742L17.8571 14.4492L26.2755 5.89633C26.5306 5.63715 26.807 5.45313 27.1046 5.34428C27.4022 5.23715 27.7211 5.18359 28.0612 5.18359C28.4014 5.18359 28.7202 5.23715 29.0179 5.34428C29.3155 5.45313 29.5918 5.63715 29.8469 5.89633L44.898 21.1879V17.041C44.898 16.3067 45.1429 15.6907 45.6327 15.1931C46.1208 14.6972 46.7262 14.4492 47.449 14.4492C48.1718 14.4492 48.7772 14.6972 49.2653 15.1931C49.7551 15.6907 50 16.3067 50 17.041V27.4082C50 28.1425 49.7551 28.7577 49.2653 29.2536C48.7772 29.7512 48.1718 30 47.449 30H37.2449Z" fill="#FE7883"/>
</svg>
