<svg width="16" height="26" viewBox="0 0 16 26" fill="none" xmlns="http://www.w3.org/2000/svg">
<path d="M1.81198e-05 13C1.81198e-05 12.6891 0.0583153 12.3883 0.174908 12.0976C0.291499 11.8053 0.446955 11.562 0.641274 11.3677L11.3677 0.641255C11.7952 0.213751 12.3393 0 13 0C13.6607 0 14.2048 0.213751 14.6323 0.641255C15.0598 1.06876 15.2736 1.61285 15.2736 2.27354C15.2736 2.93423 15.0598 3.47833 14.6323 3.90583L5.53813 13L14.6323 22.0942C15.0598 22.5217 15.2736 23.0658 15.2736 23.7265C15.2736 24.3871 15.0598 24.9312 14.6323 25.3587C14.2048 25.7862 13.6607 26 13 26C12.3393 26 11.7952 25.7862 11.3677 25.3587L0.641274 14.6323C0.408091 14.3991 0.243308 14.1465 0.146925 13.8744C0.0489883 13.6024 1.81198e-05 13.3109 1.81198e-05 13Z" fill="#607089"/>
</svg>
