<svg width="42" height="26" viewBox="0 0 42 26" fill="none" xmlns="http://www.w3.org/2000/svg">
<path d="M41.4546 2.72719V13.0629C41.4546 13.5769 41.2316 14.0698 40.8349 14.4332C40.4381 14.7967 39.9 15.0009 39.3388 15.0009C38.7777 15.0009 38.2396 14.7967 37.8428 14.4332C37.446 14.0698 37.2231 13.5769 37.2231 13.0629V7.41057L23.9117 19.6035C23.7152 19.7842 23.4816 19.9275 23.2244 20.0253C22.9673 20.1231 22.6915 20.1735 22.4131 20.1735C22.1346 20.1735 21.8589 20.1231 21.6017 20.0253C21.3446 19.9275 21.111 19.7842 20.9144 19.6035L15.3607 14.5164L4.165 24.7713C3.76575 25.1323 3.22735 25.3347 2.66637 25.3347C2.10539 25.3347 1.56699 25.1323 1.16774 24.7713C0.970494 24.5913 0.813994 24.3774 0.707209 24.1418C0.600424 23.9062 0.545456 23.6537 0.545456 23.3986C0.545456 23.1436 0.600424 22.891 0.707209 22.6555C0.813994 22.4199 0.970494 22.206 1.16774 22.0259L13.8621 10.3982C14.0586 10.2176 14.2922 10.0742 14.5493 9.9764C14.8065 9.87859 15.0822 9.82824 15.3607 9.82824C15.6391 9.82824 15.9149 9.87859 16.172 9.9764C16.4292 10.0742 16.6628 10.2176 16.8593 10.3982L22.4131 15.4853L34.2258 4.66514H28.055C27.4939 4.66514 26.9557 4.46096 26.559 4.09753C26.1622 3.73409 25.9393 3.24117 25.9393 2.72719C25.9393 2.21322 26.1622 1.72029 26.559 1.35686C26.9557 0.993421 27.4939 0.789246 28.055 0.789246H39.3388C39.9 0.789246 40.4381 0.993421 40.8349 1.35686C41.2316 1.72029 41.4546 2.21322 41.4546 2.72719Z" fill="#62BC9A"/>
</svg>
