<svg width="20" height="23" viewBox="0 0 20 23" fill="none" xmlns="http://www.w3.org/2000/svg">
<path d="M19.75 5.04166C19.75 7.1325 18.0492 8.83333 15.9583 8.83333C13.8675 8.83333 12.1667 7.1325 12.1667 5.04166C12.1667 2.95083 13.8675 1.25 15.9583 1.25C18.0492 1.25 19.75 2.95083 19.75 5.04166ZM17.5833 10.7725C17.0417 10.9133 16.5 11 15.9583 11C14.379 10.9971 12.8651 10.3685 11.7483 9.25168C10.6315 8.13489 10.0029 6.62103 10 5.04166C10 3.44916 10.6283 2.00833 11.625 0.935829C11.4284 0.694831 11.1805 0.50073 10.8994 0.367668C10.6183 0.234607 10.311 0.165937 10 0.166662C8.80833 0.166662 7.83333 1.14166 7.83333 2.33333V2.6475C4.61583 3.60083 2.41667 6.55833 2.41667 9.91666V16.4167L0.25 18.5833V19.6667H19.75V18.5833L17.5833 16.4167V10.7725ZM10 22.9167C11.2025 22.9167 12.1667 21.9525 12.1667 20.75H7.83333C7.83333 21.3246 8.06161 21.8757 8.46794 22.2821C8.87426 22.6884 9.42536 22.9167 10 22.9167Z" fill="#607089"/>
</svg>
