<svg width="40" height="40" viewBox="0 0 40 40" fill="none" xmlns="http://www.w3.org/2000/svg">
<path fill-rule="evenodd" clip-rule="evenodd" d="M28.8421 18L28.2969 22.7726L22.8758 22.8105L22.3685 18C21.0843 18 20.6085 17.3368 20.6085 16.0337H22.3685C22.3832 15.0463 22.5032 13.7916 23.4779 13.7831C23.4779 13.7831 23.4779 16.0337 25.6085 16.0337C27.739 16.0337 27.7369 13.7831 27.7369 13.7831C28.7116 13.7831 28.8337 15.0463 28.8464 16.0337H30.6064C30.6064 17.3368 30.1327 18 28.8421 18ZM21.3432 18.9474C21.4379 19.6947 21.8927 23.7095 21.8927 23.7095L25.5179 24L25.8948 30.9474L23.8421 30.8695L23.4211 26.7831H21.8043L21.52 31.0295L19.4632 31.0147L19.1748 26.8463L13.1137 26.6779L12.7369 31.0589L11.0211 31.0295L10.2021 24.9537L11.6632 22.4021V18.3284C11.6632 16.7726 12.3327 16 14.0632 16C15.0674 16 16.5074 16.0295 19.3095 16.0295C19.3095 17.5895 20.3516 18.9474 21.3432 18.9474ZM16.6485 31.0505L14.9011 31.1074L13.9516 27.5789L16.2485 27.6779L16.6485 31.0505Z" fill="#607089"/>
</svg>
